<svg height="479pt" viewBox="0 0 479.98151 479" width="479pt" xmlns="http://www.w3.org/2000/svg"><path d="m208 136.132812h16c4.417969 0 8-3.582031 8-8 0-4.417968-3.582031-8-8-8h-16c-4.417969 0-8 3.582032-8 8 0 4.417969 3.582031 8 8 8zm0 0"/><path d="m285.359375 50.183594c-17.511719-17.515625-34.046875-34.050782-53.359375-34.050782-39.929688 0-53.335938 38.21875-55.601562 64h-64.398438c-4.417969 0-8 3.582032-8 8v42.3125c-77.277344 37.308594-118.503906 123.082032-99.367188 206.734376 19.136719 83.648437 93.554688 142.964843 179.367188 142.964843s160.230469-59.316406 179.367188-142.964843c19.136718-83.652344-22.089844-169.425782-99.367188-206.734376v-42.3125c0-4.417968-3.582031-8-8-8h-63.464844c1.664063-15.496093 8.800782-48 39.464844-48 12.6875 0 26.945312 14.265626 42.046875 29.359376 20.199219 20.203124 44.976563 44.984374 77.226563 44.976562 10.246093-.164062 20.339843-2.523438 29.597656-6.917969l-4.65625 18.640625c-.820313 3.273438.5 6.714844 3.308594 8.59375 2.804687 1.878906 6.488281 1.796875 9.203124-.210937l27.273438-20.121094 27.246094 20.121094c2.71875 2.007812 6.402344 2.089843 9.207031.210937 2.808594-1.878906 4.128906-5.320312 3.308594-8.59375l-6.058594-24.234375 24.234375-6.0625c3.0625-.773437 5.382812-3.273437 5.925781-6.386719.542969-3.113281-.800781-6.253906-3.421875-8.015624l-18.609375-12.398438 13.601563-33.96875c1.238281-3.085938.441406-6.617188-2.003906-8.867188-2.449219-2.253906-6.03125-2.757812-9.003907-1.269531l-24.851562 12.410157-12.375-24.839844c-1.503907-2.523438-4.222657-4.066406-7.160157-4.066406-2.933593 0-5.65625 1.542968-7.160156 4.066406l-12.453125 24.839844-24.851562-12.425782c-2.972657-1.488281-6.554688-.984375-9.003907 1.265625-2.445312 2.253907-3.242187 5.785157-2.003906 8.871094l13.601563 33.976563-18.617188 12.425781c-2.621093 1.761719-3.960937 4.902343-3.417969 8.015625.542969 3.109375 2.867188 5.613281 5.929688 6.382812l4.921875 1.222656c-31.113281 7.519532-53.914063-15.238281-77.625-38.949218zm-32.632813 92.652344c70.796876 31.628906 110.785157 107.566406 96.8125 183.835937-13.976562 76.269531-78.289062 133.09375-155.699218 137.566406-77.410156 4.472657-147.84375-44.570312-170.507813-118.722656-22.664062-74.152344 8.3125-154.1875 74.996094-193.757813.726563-.214843 25.367187-15.625 77.671875-15.625 4.417969 0 8-3.582031 8-8 0-4.417968-3.582031-8-8-8-18.859375-.226562-37.667969 1.902344-56 6.335938v-30.335938h128v39.410157c0 3.148437 1.851562 6.007812 4.726562 7.292969zm126.761719-66.0625 8.960938-5.984376c3.132812-2.097656 4.375-6.097656 2.984375-9.597656l-8.195313-20.488281 13.1875 6.589844c1.902344.964843 4.109375 1.125 6.132813.453125 2.023437-.671875 3.695312-2.125 4.640625-4.035156l8.800781-17.6875 8.800781 17.6875c1.972657 3.953124 6.78125 5.558593 10.734375 3.582031l13.265625-6.589844-8.234375 20.453125c-1.386718 3.507812-.140625 7.507812 2.992188 9.601562l8.953125 5.96875-14.449219 3.617188c-4.289062 1.066406-6.894531 5.414062-5.824219 9.703125l2.59375 10.398437-14.078125-10.398437c-2.828125-2.085937-6.679687-2.085937-9.507812 0l-14.078125 10.398437 2.59375-10.398437c.074219-.53125.101562-1.066406.078125-1.601563 7.773437-5.613281 15.066406-11.859374 21.816406-18.671874 3.03125-3.136719 2.988281-8.128907-.097656-11.214844-3.085938-3.085938-8.074219-3.128906-11.214844-.097656-7.300781 7.464843-15.339844 14.167968-24 20zm0 0"/><path d="m184.046875 440.933594c.410156 4.085937 3.847656 7.195312 7.953125 7.199218.28125 0 .558594 0 .839844-.039062 47.007812-4.953125 83.367187-22.976562 108.0625-53.601562 41.777344-51.765626 34.890625-120.34375 34.578125-123.199219-.476563-4.394531-4.425781-7.566407-8.820313-7.089844-4.394531.476563-7.570312 4.425781-7.09375 8.820313.074219.636718 6.539063 64.796874-31.101562 111.460937-21.9375 27.203125-54.664063 43.203125-97.289063 47.714844-4.371093.457031-7.554687 4.359375-7.128906 8.734375zm0 0"/><path d="m295.878906 227.222656c5.402344 4.640625 9.808594 10.328125 12.953125 16.71875 2.101563 3.886719 6.957031 5.332032 10.84375 3.226563 3.886719-2.101563 5.332031-6.957031 3.226563-10.84375-3.910156-7.832031-9.308594-14.828125-15.894532-20.597657-1.527343-1.488281-3.289062-3.199218-5.351562-5.25-3.140625-3.03125-8.128906-2.988281-11.214844.097657-3.085937 3.085937-3.128906 8.078125-.097656 11.214843 2.136719 2.136719 3.953125 3.898438 5.535156 5.433594zm0 0"/><path d="m80 272.132812c17.671875 0 32-14.324218 32-32 0-17.671874-14.328125-32-32-32s-32 14.328126-32 32c0 17.675782 14.328125 32 32 32zm0-48c8.835938 0 16 7.164063 16 16 0 8.835938-7.164062 16-16 16s-16-7.164062-16-16c0-8.835937 7.164062-16 16-16zm0 0"/><path d="m96 288.132812c-26.507812 0-48 21.492188-48 48 0 26.511719 21.492188 48 48 48s48-21.488281 48-48c-.027344-26.496093-21.5-47.972656-48-48zm0 80c-17.671875 0-32-14.324218-32-32 0-17.671874 14.328125-32 32-32s32 14.328126 32 32c0 17.675782-14.328125 32-32 32zm0 0"/></svg>